<svg width="216" height="63" fill="none" xmlns="http://www.w3.org/2000/svg"><path d="M194.123 25.015c0 1.235-.308 2.78-.925 4.323-.616 1.544-1.54 2.78-2.465 4.324-.924 1.544-2.157 2.78-3.389 3.706l-3.39 3.397-2.157 1.544v.309l2.465-.618h6.471l-.924 4.015h-14.174l.616-2.47c.616-.619 1.541-1.545 2.465-2.163l2.773-2.78 3.082-3.087c.924-.927 1.848-2.162 2.465-3.089.616-.926 1.232-2.161 1.848-3.088.617-.926.617-1.853.617-2.78 0-.926-.308-1.543-.617-1.852-.308-.618-1.232-.927-2.465-.927-.616 0-1.54.31-2.465.618-.924.309-1.54.927-2.465 1.544l-1.232-3.397c1.232-.926 2.465-1.544 3.697-1.853 1.233-.309 2.465-.617 4.314-.617 1.849 0 3.081.617 4.314 1.544 1.233.308 1.541 1.853 1.541 3.397zm20.028 13.588h-4.005l-1.541 7.411h-4.314l1.541-7.411h-10.477l.616-2.78 14.483-16.059h3.697l-3.081 15.133h4.006l-.925 3.706zm-6.162-9.574l.924-3.088-1.849 2.78-4.622 4.94-2.157 1.545 2.157-.31h4.006l1.541-5.867z" fill="#A6ABBD"/><path d="M216 11.735l-1.232.31-3.698.926-10.476 2.161 1.848-6.176c-14.482-4.015-29.58 4.323-33.894 18.838C163.926 42.31 171.629 57.75 185.803 63c-15.098-5.25-23.726-21.618-18.796-37.368 4.93-15.44 21.261-24.397 36.668-19.764L205.216 0 216 11.735z" fill="#00C368"/><path d="M16.02 38.885l-1.45 8.266H9.847l4.077-23.461 8.217.016c2.535 0 4.528.704 5.978 2.111 1.45 1.407 2.084 3.244 1.902 5.51-.172 2.3-1.134 4.136-2.884 5.511-1.74 1.375-3.964 2.063-6.671 2.063l-4.448-.016zm.66-3.916l3.932.032c1.267 0 2.32-.327 3.158-.982.838-.656 1.337-1.542 1.498-2.66.161-1.116-.021-2.008-.547-2.674-.516-.666-1.284-1.02-2.305-1.063l-4.447-.017-1.29 7.364zm24.04 3.594h-3.834l-1.498 8.588h-4.722l4.077-23.461 7.767.016c2.6 0 4.597.612 5.994 1.837 1.407 1.225 2.03 2.927 1.869 5.108-.226 3.223-1.944 5.462-5.156 6.72l3.303 9.522v.258h-5.028l-2.771-8.588zm-3.157-3.916l3.512.032c1.246-.021 2.272-.354 3.078-.999.816-.655 1.305-1.541 1.466-2.659.15-1.041-.016-1.858-.5-2.449-.483-.59-1.25-.907-2.303-.95l-4.029-.017-1.224 7.042zm23.122 12.826c-1.557-.032-2.932-.397-4.125-1.096-1.181-.709-2.121-1.724-2.82-3.045-.687-1.332-1.084-2.857-1.192-4.576-.118-1.762.07-3.642.564-5.64.494-1.998 1.29-3.754 2.385-5.269 1.096-1.514 2.38-2.648 3.85-3.4 1.483-.752 3.084-1.111 4.803-1.08 1.579.033 2.96.409 4.14 1.129 1.182.709 2.112 1.735 2.788 3.077.677 1.332 1.064 2.847 1.16 4.544.108 1.89-.096 3.835-.612 5.833-.515 1.998-1.316 3.728-2.4 5.189-1.086 1.46-2.359 2.556-3.82 3.287-1.45.73-3.023 1.08-4.72 1.047zm6.687-12.697l.13-1.53c.107-1.913-.151-3.363-.774-4.351-.612-.989-1.547-1.504-2.804-1.547-1.966-.065-3.529.805-4.689 2.61-1.15 1.805-1.8 4.33-1.95 7.573-.107 1.902.145 3.368.758 4.4.612 1.02 1.563 1.552 2.852 1.595 1.686.075 3.083-.58 4.19-1.966 1.106-1.397 1.83-3.368 2.175-5.914l.112-.87zm6.156 12.375l4.076-23.461 6.736.016c1.579.032 2.997.392 4.254 1.08 1.267.676 2.293 1.654 3.077 2.932.784 1.279 1.257 2.718 1.418 4.319.086.934.075 1.89-.032 2.868l-.113.854c-.473 3.437-1.826 6.198-4.06 8.282-2.224 2.073-4.926 3.11-8.105 3.11h-7.251zm8.12-19.546l-2.722 15.663 1.965.016c2.17 0 3.91-.795 5.221-2.385 1.321-1.59 2.079-3.99 2.272-7.203l.032-.515c.032-1.773-.306-3.132-1.015-4.077-.709-.945-1.767-1.44-3.174-1.482l-2.578-.017zm34.258-3.915l-2.643 15.469c-.365 2.589-1.44 4.635-3.223 6.139-1.783 1.504-3.996 2.234-6.638 2.191-1.655-.032-3.094-.392-4.319-1.08a6.41 6.41 0 01-2.69-2.932c-.58-1.267-.78-2.701-.597-4.302l2.627-15.485h4.721l-2.627 15.501a6.919 6.919 0 00-.016 1.692c.215 1.74 1.252 2.642 3.11 2.707 1.332.043 2.422-.322 3.271-1.096.849-.773 1.397-1.88 1.644-3.32l2.642-15.484h4.738zm18.965 15.63c-.183 1.622-.736 3.061-1.66 4.318-.924 1.246-2.127 2.208-3.609 2.885-1.483.665-3.083.982-4.802.95-1.547-.032-2.895-.386-4.044-1.063-1.15-.688-2.058-1.676-2.724-2.965-.655-1.3-1.025-2.793-1.111-4.48-.076-1.32.059-2.964.402-4.93.355-1.966.978-3.712 1.87-5.237.902-1.525 1.971-2.734 3.206-3.626 1.74-1.246 3.728-1.847 5.962-1.804 2.428.043 4.351.795 5.769 2.256 1.428 1.45 2.213 3.47 2.352 6.058l-4.705-.016c0-1.482-.295-2.567-.886-3.255-.591-.687-1.509-1.053-2.756-1.096-1.611-.053-2.937.521-3.979 1.725-1.032 1.203-1.725 2.96-2.079 5.269-.344 2.245-.494 3.926-.451 5.043.053 1.418.37 2.465.95 3.142.58.666 1.392 1.015 2.434 1.048 1.439.053 2.588-.285 3.448-1.016.87-.74 1.445-1.799 1.724-3.174l4.689-.032zm22.043-11.715h-6.961l-3.384 19.546h-4.721l3.384-19.546h-6.881l.693-3.915h18.563l-.693 3.915z" fill="#A6ABBD"/></svg>